# Blender 3.6.11
# www.blender.org
mtllib beam.mtl
o beam
v 0.000000 -3.269216 -0.831470
v 0.000000 -3.545115 -0.555570
v 0.500000 -2.713646 -0.866025
v 0.490393 -2.908736 -0.849385
v 0.461940 -3.096329 -0.800103
v 0.415735 -3.269216 -0.720074
v 0.353553 -3.420753 -0.612372
v 0.277785 -3.545115 -0.481138
v 0.191342 -3.637526 -0.331414
v 0.097545 -3.694431 -0.168953
v 0.866025 -2.713646 -0.500000
v 0.849385 -2.908736 -0.490393
v 0.800103 -3.096329 -0.461940
v 0.720074 -3.269216 -0.415735
v 0.612372 -3.420753 -0.353553
v 0.481138 -3.545115 -0.277785
v 0.331414 -3.637526 -0.191342
v 0.168953 -3.694431 -0.097545
v 1.000000 -2.713646 0.000000
v 0.980785 -2.908736 0.000000
v 0.923879 -3.096329 0.000000
v 0.831470 -3.269216 0.000000
v 0.707107 -3.420753 0.000000
v 0.555570 -3.545115 0.000000
v 0.382683 -3.637526 0.000000
v 0.195090 -3.694431 0.000000
v 0.866025 -2.713646 0.500000
v 0.849385 -2.908736 0.490393
v 0.800103 -3.096329 0.461940
v 0.720074 -3.269216 0.415735
v 0.612372 -3.420753 0.353553
v 0.481138 -3.545115 0.277785
v 0.331414 -3.637526 0.191342
v 0.168953 -3.694431 0.097545
v 0.500000 -2.713646 0.866025
v 0.490393 -2.908736 0.849385
v 0.461940 -3.096329 0.800103
v 0.415735 -3.269216 0.720074
v 0.353553 -3.420753 0.612372
v 0.277785 -3.545115 0.481138
v 0.191342 -3.637526 0.331414
v 0.097545 -3.694431 0.168953
v 0.000000 -2.713646 1.000000
v 0.000000 -2.908736 0.980785
v 0.000000 -3.096329 0.923879
v -0.000000 -3.269216 0.831469
v -0.000000 -3.420753 0.707107
v -0.000000 -3.545115 0.555570
v 0.000000 -3.637526 0.382683
v 0.000000 -3.694431 0.195090
v -0.500000 -2.713646 0.866025
v -0.490393 -2.908736 0.849385
v -0.461940 -3.096329 0.800103
v -0.415735 -3.269216 0.720074
v -0.353553 -3.420753 0.612372
v -0.277785 -3.545115 0.481138
v -0.191342 -3.637526 0.331414
v -0.097545 -3.694431 0.168953
v -0.866025 -2.713646 0.500000
v -0.849385 -2.908736 0.490393
v -0.800103 -3.096329 0.461940
v -0.720074 -3.269216 0.415735
v -0.612372 -3.420753 0.353553
v -0.481138 -3.545115 0.277785
v -0.331414 -3.637526 0.191342
v -0.168953 -3.694431 0.097545
v 0.000000 -3.713646 0.000000
v -1.000000 -2.713646 0.000000
v -0.980785 -2.908736 0.000000
v -0.923880 -3.096329 0.000000
v -0.831469 -3.269216 -0.000000
v -0.707107 -3.420753 -0.000000
v -0.555570 -3.545115 -0.000000
v -0.382683 -3.637526 0.000000
v -0.195090 -3.694431 0.000000
v -0.866025 -2.713646 -0.500000
v -0.849385 -2.908736 -0.490393
v -0.800103 -3.096329 -0.461940
v -0.720074 -3.269216 -0.415735
v -0.612372 -3.420753 -0.353553
v -0.481138 -3.545115 -0.277785
v -0.331414 -3.637526 -0.191342
v -0.168953 -3.694431 -0.097545
v -0.500000 -2.713646 -0.866025
v -0.490393 -2.908736 -0.849385
v -0.461940 -3.096329 -0.800103
v -0.415735 -3.269216 -0.720074
v -0.353553 -3.420753 -0.612372
v -0.277785 -3.545115 -0.481138
v -0.191342 -3.637526 -0.331414
v -0.097545 -3.694431 -0.168953
v 0.000000 -2.713646 -1.000000
v 0.000000 -2.908736 -0.980785
v -0.000000 -3.096329 -0.923880
v 0.000000 -3.420753 -0.707107
v -0.000000 -3.637526 -0.382683
v 0.000000 -3.694431 -0.195090
v 0.000000 2.805943 -0.707107
v 0.000000 2.654406 -0.831470
v 0.097545 3.079621 -0.168953
v 0.191342 3.022716 -0.331414
v 0.277785 2.930305 -0.481138
v 0.353553 2.805943 -0.612372
v 0.415735 2.654406 -0.720074
v 0.461940 2.481519 -0.800103
v 0.490393 2.293926 -0.849385
v 0.500000 2.098836 -0.866025
v 0.168953 3.079621 -0.097545
v 0.331414 3.022716 -0.191342
v 0.481138 2.930305 -0.277785
v 0.612372 2.805943 -0.353553
v 0.720074 2.654406 -0.415735
v 0.800103 2.481519 -0.461940
v 0.849385 2.293926 -0.490393
v 0.866025 2.098836 -0.500000
v 0.195090 3.079621 0.000000
v 0.382683 3.022716 0.000000
v 0.555570 2.930305 0.000000
v 0.707107 2.805943 0.000000
v 0.831470 2.654406 0.000000
v 0.923879 2.481519 0.000000
v 0.980785 2.293926 0.000000
v 1.000000 2.098836 0.000000
v 0.168953 3.079621 0.097545
v 0.331414 3.022716 0.191342
v 0.481138 2.930305 0.277785
v 0.612372 2.805943 0.353553
v 0.720074 2.654406 0.415735
v 0.800103 2.481519 0.461940
v 0.849385 2.293926 0.490393
v 0.866025 2.098836 0.500000
v 0.097545 3.079621 0.168953
v 0.191342 3.022716 0.331414
v 0.277785 2.930305 0.481138
v 0.353553 2.805943 0.612372
v 0.415735 2.654406 0.720074
v 0.461940 2.481519 0.800103
v 0.490393 2.293926 0.849385
v 0.500000 2.098836 0.866025
v 0.000000 3.079621 0.195090
v 0.000000 3.022716 0.382683
v -0.000000 2.930305 0.555570
v -0.000000 2.805943 0.707107
v -0.000000 2.654406 0.831469
v 0.000000 2.481519 0.923879
v 0.000000 2.293926 0.980785
v 0.000000 2.098836 1.000000
v -0.097545 3.079621 0.168953
v -0.191342 3.022716 0.331414
v -0.277785 2.930305 0.481138
v -0.353553 2.805943 0.612372
v -0.415735 2.654406 0.720074
v -0.461940 2.481519 0.800103
v -0.490393 2.293926 0.849385
v -0.500000 2.098836 0.866025
v -0.168953 3.079621 0.097545
v -0.331414 3.022716 0.191342
v -0.481138 2.930305 0.277785
v -0.612372 2.805943 0.353553
v -0.720074 2.654406 0.415735
v -0.800103 2.481519 0.461940
v -0.849385 2.293926 0.490393
v -0.866025 2.098836 0.500000
v -0.195090 3.079621 0.000000
v -0.382683 3.022716 0.000000
v -0.555570 2.930305 -0.000000
v -0.707107 2.805943 -0.000000
v -0.831469 2.654406 -0.000000
v -0.923880 2.481519 0.000000
v -0.980785 2.293926 0.000000
v -1.000000 2.098836 0.000000
v -0.168953 3.079621 -0.097545
v -0.331414 3.022716 -0.191342
v -0.481138 2.930305 -0.277785
v -0.612372 2.805943 -0.353553
v -0.720074 2.654406 -0.415735
v -0.800103 2.481519 -0.461940
v -0.849385 2.293926 -0.490393
v -0.866025 2.098836 -0.500000
v -0.097545 3.079621 -0.168953
v -0.191342 3.022716 -0.331414
v -0.277785 2.930305 -0.481138
v -0.353553 2.805943 -0.612372
v -0.415735 2.654406 -0.720074
v -0.461940 2.481519 -0.800103
v -0.490393 2.293926 -0.849385
v -0.500000 2.098836 -0.866025
v 0.000000 3.098836 0.000000
v 0.000000 3.079621 -0.195090
v -0.000000 3.022716 -0.382683
v 0.000000 2.930305 -0.555570
v -0.000000 2.481519 -0.923880
v 0.000000 2.293926 -0.980785
v 0.000000 2.098836 -1.000000
v 0.000000 -2.626834 -1.000000
v 0.000000 2.015461 -1.000000
v 0.500000 -2.626834 -0.866025
v 0.500000 2.015461 -0.866025
v 0.866025 -2.626834 -0.500000
v 0.866025 2.015461 -0.500000
v 1.000000 -2.626834 0.000000
v 1.000000 2.015461 0.000000
v 0.866025 -2.626834 0.500000
v 0.866025 2.015461 0.500000
v 0.500000 -2.626834 0.866025
v 0.500000 2.015461 0.866025
v 0.000000 -2.626834 1.000000
v 0.000000 2.015461 1.000000
v -0.500000 -2.626834 0.866025
v -0.500000 2.015461 0.866025
v -0.866025 -2.626834 0.500000
v -0.866025 2.015461 0.500000
v -1.000000 -2.626834 0.000000
v -1.000000 2.015461 0.000000
v -0.866025 -2.626834 -0.500000
v -0.866025 2.015461 -0.500000
v -0.500000 -2.626834 -0.866025
v -0.500000 2.015461 -0.866025
vn 0.1253 -0.8750 -0.4677
vn 0.0775 -0.9541 -0.2894
vn 0.0263 -0.9948 -0.0980
vn 0.2577 -0.0947 -0.9616
vn 0.2484 -0.2812 -0.9270
vn 0.2300 -0.4588 -0.8583
vn 0.2028 -0.6212 -0.7569
vn 0.1676 -0.7621 -0.6254
vn 0.5541 -0.6212 -0.5541
vn 0.4578 -0.7621 -0.4578
vn 0.3424 -0.8750 -0.3424
vn 0.2119 -0.9541 -0.2119
vn 0.0717 -0.9948 -0.0717
vn 0.7039 -0.0947 -0.7039
vn 0.6786 -0.2812 -0.6786
vn 0.6283 -0.4588 -0.6283
vn 0.0980 -0.9948 -0.0263
vn 0.9616 -0.0947 -0.2577
vn 0.9270 -0.2812 -0.2484
vn 0.8583 -0.4588 -0.2300
vn 0.7569 -0.6212 -0.2028
vn 0.6254 -0.7621 -0.1676
vn 0.4677 -0.8750 -0.1253
vn 0.2894 -0.9541 -0.0775
vn 0.6254 -0.7621 0.1676
vn 0.4677 -0.8750 0.1253
vn 0.2894 -0.9541 0.0775
vn 0.0980 -0.9948 0.0263
vn 0.9616 -0.0947 0.2577
vn 0.9270 -0.2812 0.2484
vn 0.8583 -0.4588 0.2300
vn 0.7569 -0.6212 0.2028
vn 0.6786 -0.2812 0.6786
vn 0.6283 -0.4588 0.6283
vn 0.5541 -0.6212 0.5541
vn 0.4578 -0.7621 0.4578
vn 0.3424 -0.8750 0.3424
vn 0.2119 -0.9541 0.2119
vn 0.0717 -0.9948 0.0717
vn 0.7039 -0.0947 0.7039
vn 0.1253 -0.8750 0.4677
vn 0.0775 -0.9541 0.2894
vn 0.0263 -0.9948 0.0980
vn 0.2577 -0.0947 0.9616
vn 0.2484 -0.2812 0.9270
vn 0.2300 -0.4588 0.8583
vn 0.2028 -0.6212 0.7569
vn 0.1676 -0.7621 0.6254
vn -0.2484 -0.2812 0.9270
vn -0.2300 -0.4588 0.8583
vn -0.2028 -0.6212 0.7569
vn -0.1676 -0.7621 0.6254
vn -0.1253 -0.8750 0.4677
vn -0.0775 -0.9541 0.2894
vn -0.0263 -0.9948 0.0980
vn -0.2577 -0.0947 0.9616
vn -0.3424 -0.8750 0.3424
vn -0.2119 -0.9541 0.2119
vn -0.0717 -0.9948 0.0717
vn -0.7039 -0.0947 0.7039
vn -0.6786 -0.2812 0.6786
vn -0.6283 -0.4588 0.6283
vn -0.5541 -0.6212 0.5541
vn -0.4578 -0.7621 0.4578
vn -0.8583 -0.4588 0.2300
vn -0.7569 -0.6212 0.2028
vn -0.6254 -0.7621 0.1676
vn -0.4677 -0.8750 0.1253
vn -0.2894 -0.9541 0.0775
vn -0.0980 -0.9948 0.0263
vn -0.9616 -0.0947 0.2577
vn -0.9270 -0.2812 0.2484
vn -0.2894 -0.9541 -0.0775
vn -0.0980 -0.9948 -0.0263
vn -0.9616 -0.0947 -0.2577
vn -0.9270 -0.2812 -0.2484
vn -0.8583 -0.4588 -0.2300
vn -0.7569 -0.6212 -0.2028
vn -0.6254 -0.7621 -0.1676
vn -0.4677 -0.8750 -0.1253
vn -0.6283 -0.4588 -0.6283
vn -0.5541 -0.6212 -0.5541
vn -0.4578 -0.7621 -0.4578
vn -0.3424 -0.8750 -0.3424
vn -0.2119 -0.9541 -0.2119
vn -0.0717 -0.9948 -0.0717
vn -0.7039 -0.0947 -0.7039
vn -0.6786 -0.2812 -0.6786
vn -0.0775 -0.9541 -0.2894
vn -0.0263 -0.9948 -0.0980
vn -0.2577 -0.0947 -0.9616
vn -0.2484 -0.2812 -0.9270
vn -0.2300 -0.4588 -0.8583
vn -0.2028 -0.6212 -0.7569
vn -0.1676 -0.7621 -0.6254
vn -0.1253 -0.8750 -0.4677
vn 0.1676 0.7621 -0.6254
vn 0.2028 0.6212 -0.7569
vn 0.2300 0.4588 -0.8583
vn 0.2484 0.2812 -0.9270
vn 0.2577 0.0947 -0.9616
vn 0.0263 0.9948 -0.0980
vn 0.0775 0.9541 -0.2894
vn 0.1253 0.8750 -0.4677
vn 0.3424 0.8750 -0.3424
vn 0.4578 0.7621 -0.4578
vn 0.5541 0.6212 -0.5541
vn 0.6283 0.4588 -0.6283
vn 0.6786 0.2812 -0.6786
vn 0.7039 0.0947 -0.7039
vn 0.0717 0.9948 -0.0717
vn 0.2119 0.9541 -0.2119
vn 0.9270 0.2812 -0.2484
vn 0.9616 0.0947 -0.2577
vn 0.0980 0.9948 -0.0263
vn 0.2894 0.9541 -0.0775
vn 0.4677 0.8750 -0.1253
vn 0.6254 0.7621 -0.1676
vn 0.7569 0.6212 -0.2028
vn 0.8583 0.4588 -0.2300
vn 0.6254 0.7621 0.1676
vn 0.7569 0.6212 0.2028
vn 0.8583 0.4588 0.2300
vn 0.9270 0.2812 0.2484
vn 0.9616 0.0947 0.2577
vn 0.0980 0.9948 0.0263
vn 0.2894 0.9541 0.0775
vn 0.4677 0.8750 0.1253
vn 0.7039 0.0947 0.7039
vn 0.0717 0.9948 0.0717
vn 0.2119 0.9541 0.2119
vn 0.3424 0.8750 0.3424
vn 0.4578 0.7621 0.4578
vn 0.5541 0.6212 0.5541
vn 0.6283 0.4588 0.6283
vn 0.6786 0.2812 0.6786
vn 0.1676 0.7621 0.6254
vn 0.2028 0.6212 0.7569
vn 0.2300 0.4588 0.8583
vn 0.2484 0.2812 0.9270
vn 0.2577 0.0947 0.9616
vn 0.0263 0.9948 0.0980
vn 0.0775 0.9541 0.2894
vn 0.1253 0.8750 0.4677
vn -0.2577 0.0947 0.9616
vn -0.0263 0.9948 0.0980
vn -0.0775 0.9541 0.2894
vn -0.1253 0.8750 0.4677
vn -0.1676 0.7621 0.6254
vn -0.2028 0.6212 0.7569
vn -0.2300 0.4588 0.8583
vn -0.2484 0.2812 0.9270
vn -0.5541 0.6212 0.5541
vn -0.6283 0.4588 0.6283
vn -0.6786 0.2812 0.6786
vn -0.7039 0.0947 0.7039
vn -0.0717 0.9948 0.0717
vn -0.2119 0.9541 0.2119
vn -0.3424 0.8750 0.3424
vn -0.4578 0.7621 0.4578
vn -0.2894 0.9541 0.0775
vn -0.4677 0.8750 0.1253
vn -0.6254 0.7621 0.1676
vn -0.7569 0.6212 0.2028
vn -0.8583 0.4588 0.2300
vn -0.9270 0.2812 0.2484
vn -0.9616 0.0947 0.2577
vn -0.0980 0.9948 0.0263
vn -0.8583 0.4588 -0.2300
vn -0.9270 0.2812 -0.2484
vn -0.9616 0.0947 -0.2577
vn -0.0980 0.9948 -0.0263
vn -0.2894 0.9541 -0.0775
vn -0.4677 0.8750 -0.1253
vn -0.6254 0.7621 -0.1676
vn -0.7569 0.6212 -0.2028
vn -0.2119 0.9541 -0.2119
vn -0.3424 0.8750 -0.3424
vn -0.4578 0.7621 -0.4578
vn -0.5541 0.6212 -0.5541
vn -0.6283 0.4588 -0.6283
vn -0.6786 0.2812 -0.6786
vn -0.7039 0.0947 -0.7039
vn -0.0717 0.9948 -0.0717
vn -0.2300 0.4588 -0.8583
vn -0.2484 0.2812 -0.9270
vn -0.2577 0.0947 -0.9616
vn -0.0263 0.9948 -0.0980
vn -0.0775 0.9541 -0.2894
vn -0.1253 0.8750 -0.4677
vn -0.1676 0.7621 -0.6254
vn -0.2028 0.6212 -0.7569
vn 0.2588 -0.0000 -0.9659
vn 0.7071 -0.0000 -0.7071
vn 0.9659 -0.0000 -0.2588
vn 0.9659 -0.0000 0.2588
vn 0.7071 -0.0000 0.7071
vn 0.2588 -0.0000 0.9659
vn -0.2588 -0.0000 0.9659
vn -0.7071 -0.0000 0.7071
vn -0.9659 -0.0000 0.2588
vn -0.9659 -0.0000 -0.2588
vn -0.7071 -0.0000 -0.7071
vn -0.2588 -0.0000 -0.9659
vt 0.500000 0.011174
vt 0.500000 0.024738
vt 0.638893 0.024738
vt 0.595671 0.011174
vt 0.500000 0.002820
vt 0.548773 0.002820
vt 0.500000 0.000000
vt 0.500000 0.118152
vt 0.500000 0.146789
vt 0.750000 0.146789
vt 0.745197 0.118152
vt 0.500000 0.090616
vt 0.730970 0.090616
vt 0.500000 0.065238
vt 0.707868 0.065238
vt 0.500000 0.042994
vt 0.676777 0.042994
vt 0.860037 0.065238
vt 0.806186 0.042994
vt 0.740569 0.024738
vt 0.665707 0.011174
vt 0.584477 0.002820
vt 0.933013 0.146789
vt 0.924693 0.118152
vt 0.900051 0.090616
vt 0.597545 0.002820
vt 1.000000 0.146789
vt 0.990393 0.118152
vt 0.961940 0.090616
vt 0.915735 0.065238
vt 0.853553 0.042994
vt 0.777785 0.024738
vt 0.691342 0.011174
vt 0.806186 0.042994
vt 0.730970 0.090616
vt 0.707867 0.065238
vt 0.500000 0.146789
vt 0.500000 0.118152
vt 0.254804 0.118152
vt 0.269030 0.090616
vt 0.292133 0.065238
vt 0.323223 0.042994
vt 0.361107 0.024738
vt 0.404329 0.011174
vt 0.451227 0.002820
vt 0.250000 0.146789
vt 0.259431 0.024738
vt 0.334293 0.011174
vt 0.415523 0.002820
vt 0.066987 0.146789
vt 0.075307 0.118152
vt 0.099948 0.090616
vt 0.139963 0.065238
vt 0.193814 0.042994
vt 0.038060 0.090616
vt 0.084265 0.065238
vt 0.146446 0.042994
vt 0.222215 0.024738
vt 0.308658 0.011174
vt 0.402455 0.002820
vt 0.000000 0.146789
vt 0.009607 0.118152
vt 0.139963 0.065238
vt 0.193814 0.042994
vt 0.269030 0.090616
vt 0.323223 0.042994
vt 0.500000 0.957006
vt 0.500000 0.975262
vt 0.638893 0.975262
vt 0.676777 0.957006
vt 0.500000 0.934762
vt 0.707868 0.934762
vt 0.500000 0.909384
vt 0.730970 0.909384
vt 0.500000 0.881848
vt 0.745197 0.881848
vt 0.500000 0.853211
vt 0.750000 0.853211
vt 0.500000 0.997180
vt 0.500000 1.000000
vt 0.548773 0.997180
vt 0.500000 0.988826
vt 0.595671 0.988826
vt 0.665707 0.988826
vt 0.740569 0.975262
vt 0.806186 0.957006
vt 0.860037 0.934762
vt 0.900051 0.909384
vt 0.924693 0.881848
vt 0.933013 0.853211
vt 0.584477 0.997180
vt 0.961940 0.909384
vt 0.990393 0.881848
vt 1.000000 0.853211
vt 0.597545 0.997180
vt 0.691342 0.988826
vt 0.777785 0.975262
vt 0.853553 0.957006
vt 0.915735 0.934762
vt 0.806186 0.957006
vt 0.707867 0.934762
vt 0.730970 0.909384
vt 0.500000 0.881848
vt 0.254804 0.881848
vt 0.250000 0.853211
vt 0.451227 0.997180
vt 0.404329 0.988826
vt 0.361107 0.975262
vt 0.323223 0.957006
vt 0.292133 0.934762
vt 0.269030 0.909384
vt 0.193814 0.957006
vt 0.139963 0.934762
vt 0.099948 0.909384
vt 0.075307 0.881848
vt 0.066987 0.853211
vt 0.415523 0.997180
vt 0.334293 0.988826
vt 0.259431 0.975262
vt 0.402455 0.997180
vt 0.308658 0.988826
vt 0.222215 0.975262
vt 0.146446 0.957006
vt 0.084265 0.934762
vt 0.038060 0.909384
vt 0.009607 0.881848
vt 0.000000 0.853211
vt 0.139963 0.934762
vt 0.193814 0.957006
vt 0.323223 0.957006
vt 0.269030 0.909384
vt 0.500000 0.159532
vt 0.500000 0.840972
vt 0.750000 0.840972
vt 0.750000 0.159532
vt 0.933013 0.840972
vt 0.933013 0.159532
vt 1.000000 0.840972
vt 1.000000 0.159532
vt 0.933013 0.840972
vt 0.750000 0.840972
vt 0.500000 0.840972
vt 0.500000 0.159532
vt 0.250000 0.840972
vt 0.250000 0.159532
vt 0.066987 0.840972
vt 0.066987 0.159532
vt 0.000000 0.840972
vt 0.000000 0.159532
vt 0.066987 0.840972
vt 0.250000 0.840972
s 0
usemtl material
f 96/1/1 2/2/1 8/3/1 9/4/1
f 97/5/2 96/1/2 9/4/2 10/6/2
f 67/7/3 97/5/3 10/6/3
f 93/8/4 92/9/4 3/10/4 4/11/4
f 94/12/5 93/8/5 4/11/5 5/13/5
f 1/14/6 94/12/6 5/13/6 6/15/6
f 95/16/7 1/14/7 6/15/7 7/17/7
f 2/2/8 95/16/8 7/17/8 8/3/8
f 7/17/9 6/15/9 14/18/9 15/19/9
f 8/3/10 7/17/10 15/19/10 16/20/10
f 9/4/11 8/3/11 16/20/11 17/21/11
f 10/6/12 9/4/12 17/21/12 18/22/12
f 67/7/13 10/6/13 18/22/13
f 4/11/14 3/10/14 11/23/14 12/24/14
f 5/13/15 4/11/15 12/24/15 13/25/15
f 6/15/16 5/13/16 13/25/16 14/18/16
f 67/7/17 18/22/17 26/26/17
f 12/24/18 11/23/18 19/27/18 20/28/18
f 13/25/19 12/24/19 20/28/19 21/29/19
f 14/18/20 13/25/20 21/29/20 22/30/20
f 15/19/21 14/18/21 22/30/21 23/31/21
f 16/20/22 15/19/22 23/31/22 24/32/22
f 17/21/23 16/20/23 24/32/23 25/33/23
f 18/22/24 17/21/24 25/33/24 26/26/24
f 24/32/25 23/31/25 31/34/25 32/20/25
f 25/33/26 24/32/26 32/20/26 33/21/26
f 26/26/27 25/33/27 33/21/27 34/22/27
f 67/7/28 26/26/28 34/22/28
f 20/28/29 19/27/29 27/23/29 28/24/29
f 21/29/30 20/28/30 28/24/30 29/25/30
f 22/30/31 21/29/31 29/25/31 30/18/31
f 23/31/32 22/30/32 30/18/32 31/34/32
f 29/25/33 28/24/33 36/11/33 37/35/33
f 30/18/34 29/25/34 37/35/34 38/36/34
f 31/34/35 30/18/35 38/36/35 39/17/35
f 32/20/36 31/34/36 39/17/36 40/3/36
f 33/21/37 32/20/37 40/3/37 41/4/37
f 34/22/38 33/21/38 41/4/38 42/6/38
f 67/7/39 34/22/39 42/6/39
f 28/24/40 27/23/40 35/10/40 36/11/40
f 41/4/41 40/3/41 48/2/41 49/1/41
f 42/6/42 41/4/42 49/1/42 50/5/42
f 67/7/43 42/6/43 50/5/43
f 36/11/44 35/10/44 43/37/44 44/38/44
f 37/35/45 36/11/45 44/38/45 45/12/45
f 38/36/46 37/35/46 45/12/46 46/14/46
f 39/17/47 38/36/47 46/14/47 47/16/47
f 40/3/48 39/17/48 47/16/48 48/2/48
f 45/12/49 44/38/49 52/39/49 53/40/49
f 46/14/50 45/12/50 53/40/50 54/41/50
f 47/16/51 46/14/51 54/41/51 55/42/51
f 48/2/52 47/16/52 55/42/52 56/43/52
f 49/1/53 48/2/53 56/43/53 57/44/53
f 50/5/54 49/1/54 57/44/54 58/45/54
f 67/7/55 50/5/55 58/45/55
f 44/38/56 43/37/56 51/46/56 52/39/56
f 57/44/57 56/43/57 64/47/57 65/48/57
f 58/45/58 57/44/58 65/48/58 66/49/58
f 67/7/59 58/45/59 66/49/59
f 52/39/60 51/46/60 59/50/60 60/51/60
f 53/40/61 52/39/61 60/51/61 61/52/61
f 54/41/62 53/40/62 61/52/62 62/53/62
f 55/42/63 54/41/63 62/53/63 63/54/63
f 56/43/64 55/42/64 63/54/64 64/47/64
f 62/53/65 61/52/65 70/55/65 71/56/65
f 63/54/66 62/53/66 71/56/66 72/57/66
f 64/47/67 63/54/67 72/57/67 73/58/67
f 65/48/68 64/47/68 73/58/68 74/59/68
f 66/49/69 65/48/69 74/59/69 75/60/69
f 67/7/70 66/49/70 75/60/70
f 60/51/71 59/50/71 68/61/71 69/62/71
f 61/52/72 60/51/72 69/62/72 70/55/72
f 75/60/73 74/59/73 82/48/73 83/49/73
f 67/7/74 75/60/74 83/49/74
f 69/62/75 68/61/75 76/50/75 77/51/75
f 70/55/76 69/62/76 77/51/76 78/52/76
f 71/56/77 70/55/77 78/52/77 79/63/77
f 72/57/78 71/56/78 79/63/78 80/64/78
f 73/58/79 72/57/79 80/64/79 81/47/79
f 74/59/80 73/58/80 81/47/80 82/48/80
f 79/63/81 78/52/81 86/65/81 87/41/81
f 80/64/82 79/63/82 87/41/82 88/66/82
f 81/47/83 80/64/83 88/66/83 89/43/83
f 82/48/84 81/47/84 89/43/84 90/44/84
f 83/49/85 82/48/85 90/44/85 91/45/85
f 67/7/86 83/49/86 91/45/86
f 77/51/87 76/50/87 84/46/87 85/39/87
f 78/52/88 77/51/88 85/39/88 86/65/88
f 91/45/89 90/44/89 96/1/89 97/5/89
f 67/7/90 91/45/90 97/5/90
f 85/39/91 84/46/91 92/9/91 93/8/91
f 86/65/92 85/39/92 93/8/92 94/12/92
f 87/41/93 86/65/93 94/12/93 1/14/93
f 88/66/94 87/41/94 1/14/94 95/16/94
f 89/43/95 88/66/95 95/16/95 2/2/95
f 90/44/96 89/43/96 2/2/96 96/1/96
f 98/67/97 191/68/97 102/69/97 103/70/97
f 99/71/98 98/67/98 103/70/98 104/72/98
f 192/73/99 99/71/99 104/72/99 105/74/99
f 193/75/100 192/73/100 105/74/100 106/76/100
f 194/77/101 193/75/101 106/76/101 107/78/101
f 189/79/102 188/80/102 100/81/102
f 190/82/103 189/79/103 100/81/103 101/83/103
f 191/68/104 190/82/104 101/83/104 102/69/104
f 102/69/105 101/83/105 109/84/105 110/85/105
f 103/70/106 102/69/106 110/85/106 111/86/106
f 104/72/107 103/70/107 111/86/107 112/87/107
f 105/74/108 104/72/108 112/87/108 113/88/108
f 106/76/109 105/74/109 113/88/109 114/89/109
f 107/78/110 106/76/110 114/89/110 115/90/110
f 100/81/111 188/80/111 108/91/111
f 101/83/112 100/81/112 108/91/112 109/84/112
f 114/89/113 113/88/113 121/92/113 122/93/113
f 115/90/114 114/89/114 122/93/114 123/94/114
f 108/91/115 188/80/115 116/95/115
f 109/84/116 108/91/116 116/95/116 117/96/116
f 110/85/117 109/84/117 117/96/117 118/97/117
f 111/86/118 110/85/118 118/97/118 119/98/118
f 112/87/119 111/86/119 119/98/119 120/99/119
f 113/88/120 112/87/120 120/99/120 121/92/120
f 119/98/121 118/97/121 126/85/121 127/100/121
f 120/99/122 119/98/122 127/100/122 128/87/122
f 121/92/123 120/99/123 128/87/123 129/88/123
f 122/93/124 121/92/124 129/88/124 130/89/124
f 123/94/125 122/93/125 130/89/125 131/90/125
f 116/95/126 188/80/126 124/91/126
f 117/96/127 116/95/127 124/91/127 125/84/127
f 118/97/128 117/96/128 125/84/128 126/85/128
f 131/90/129 130/89/129 138/76/129 139/78/129
f 124/91/130 188/80/130 132/81/130
f 125/84/131 124/91/131 132/81/131 133/83/131
f 126/85/132 125/84/132 133/83/132 134/69/132
f 127/100/133 126/85/133 134/69/133 135/70/133
f 128/87/134 127/100/134 135/70/134 136/101/134
f 129/88/135 128/87/135 136/101/135 137/102/135
f 130/89/136 129/88/136 137/102/136 138/76/136
f 135/70/137 134/69/137 142/68/137 143/67/137
f 136/101/138 135/70/138 143/67/138 144/71/138
f 137/102/139 136/101/139 144/71/139 145/73/139
f 138/76/140 137/102/140 145/73/140 146/103/140
f 139/78/141 138/76/141 146/103/141 147/77/141
f 132/81/142 188/80/142 140/79/142
f 133/83/143 132/81/143 140/79/143 141/82/143
f 134/69/144 133/83/144 141/82/144 142/68/144
f 147/77/145 146/103/145 154/104/145 155/105/145
f 140/79/146 188/80/146 148/106/146
f 141/82/147 140/79/147 148/106/147 149/107/147
f 142/68/148 141/82/148 149/107/148 150/108/148
f 143/67/149 142/68/149 150/108/149 151/109/149
f 144/71/150 143/67/150 151/109/150 152/110/150
f 145/73/151 144/71/151 152/110/151 153/111/151
f 146/103/152 145/73/152 153/111/152 154/104/152
f 152/110/153 151/109/153 159/112/153 160/113/153
f 153/111/154 152/110/154 160/113/154 161/114/154
f 154/104/155 153/111/155 161/114/155 162/115/155
f 155/105/156 154/104/156 162/115/156 163/116/156
f 148/106/157 188/80/157 156/117/157
f 149/107/158 148/106/158 156/117/158 157/118/158
f 150/108/159 149/107/159 157/118/159 158/119/159
f 151/109/160 150/108/160 158/119/160 159/112/160
f 157/118/161 156/117/161 164/120/161 165/121/161
f 158/119/162 157/118/162 165/121/162 166/122/162
f 159/112/163 158/119/163 166/122/163 167/123/163
f 160/113/164 159/112/164 167/123/164 168/124/164
f 161/114/165 160/113/165 168/124/165 169/125/165
f 162/115/166 161/114/166 169/125/166 170/126/166
f 163/116/167 162/115/167 170/126/167 171/127/167
f 156/117/168 188/80/168 164/120/168
f 169/125/169 168/124/169 176/128/169 177/114/169
f 170/126/170 169/125/170 177/114/170 178/115/170
f 171/127/171 170/126/171 178/115/171 179/116/171
f 164/120/172 188/80/172 172/117/172
f 165/121/173 164/120/173 172/117/173 173/118/173
f 166/122/174 165/121/174 173/118/174 174/119/174
f 167/123/175 166/122/175 174/119/175 175/129/175
f 168/124/176 167/123/176 175/129/176 176/128/176
f 173/118/177 172/117/177 180/106/177 181/107/177
f 174/119/178 173/118/178 181/107/178 182/108/178
f 175/129/179 174/119/179 182/108/179 183/130/179
f 176/128/180 175/129/180 183/130/180 184/110/180
f 177/114/181 176/128/181 184/110/181 185/131/181
f 178/115/182 177/114/182 185/131/182 186/104/182
f 179/116/183 178/115/183 186/104/183 187/105/183
f 172/117/184 188/80/184 180/106/184
f 185/131/185 184/110/185 99/71/185 192/73/185
f 186/104/186 185/131/186 192/73/186 193/75/186
f 187/105/187 186/104/187 193/75/187 194/77/187
f 180/106/188 188/80/188 189/79/188
f 181/107/189 180/106/189 189/79/189 190/82/189
f 182/108/190 181/107/190 190/82/190 191/68/190
f 183/130/191 182/108/191 191/68/191 98/67/191
f 184/110/192 183/130/192 98/67/192 99/71/192
f 195/132/193 196/133/193 198/134/193 197/135/193
f 197/135/194 198/134/194 200/136/194 199/137/194
f 199/137/195 200/136/195 202/138/195 201/139/195
f 201/139/196 202/138/196 204/140/196 203/137/196
f 203/137/197 204/140/197 206/141/197 205/135/197
f 205/135/198 206/141/198 208/142/198 207/143/198
f 207/143/199 208/142/199 210/144/199 209/145/199
f 209/145/200 210/144/200 212/146/200 211/147/200
f 211/147/201 212/146/201 214/148/201 213/149/201
f 213/149/202 214/148/202 216/150/202 215/147/202
f 215/147/203 216/150/203 218/151/203 217/145/203
f 217/145/204 218/151/204 196/133/204 195/132/204
f 194/77/193 107/78/193 198/134/193 196/133/193
f 187/105/204 194/77/204 196/133/204 218/151/204
f 179/116/203 187/105/203 218/151/203 216/150/203
f 171/127/202 179/116/202 216/150/202 214/148/202
f 163/116/201 171/127/201 214/148/201 212/146/201
f 155/105/200 163/116/200 212/146/200 210/144/200
f 147/77/199 155/105/199 210/144/199 208/142/199
f 139/78/198 147/77/198 208/142/198 206/141/198
f 131/90/197 139/78/197 206/141/197 204/140/197
f 123/94/196 131/90/196 204/140/196 202/138/196
f 115/90/195 123/94/195 202/138/195 200/136/195
f 107/78/194 115/90/194 200/136/194 198/134/194
f 3/10/193 92/9/193 195/132/193 197/135/193
f 92/9/204 84/46/204 217/145/204 195/132/204
f 84/46/203 76/50/203 215/147/203 217/145/203
f 76/50/202 68/61/202 213/149/202 215/147/202
f 68/61/201 59/50/201 211/147/201 213/149/201
f 59/50/200 51/46/200 209/145/200 211/147/200
f 51/46/199 43/37/199 207/143/199 209/145/199
f 43/37/198 35/10/198 205/135/198 207/143/198
f 35/10/197 27/23/197 203/137/197 205/135/197
f 27/23/196 19/27/196 201/139/196 203/137/196
f 19/27/195 11/23/195 199/137/195 201/139/195
f 11/23/194 3/10/194 197/135/194 199/137/194
