# Blender 3.6.11
# www.blender.org
mtllib marisa_hakkeiro.mtl
o hakkeiro
v 0.000000 -0.500000 -0.560369
v 0.000000 0.300000 -1.000000
v 0.396241 -0.500000 -0.396241
v 0.707107 0.300000 -0.707107
v 0.560369 -0.500000 0.000000
v 1.000000 0.300000 0.000000
v 0.396241 -0.500000 0.396241
v 0.707107 0.300000 0.707107
v 0.000000 -0.500000 0.560369
v 0.000000 0.300000 1.000000
v -0.396241 -0.500000 0.396241
v -0.707107 0.300000 0.707107
v -0.560369 -0.500000 0.000000
v -1.000000 0.300000 0.000000
v -0.396241 -0.500000 -0.396241
v -0.707107 0.300000 -0.707107
v 0.000000 0.000000 -1.000000
v 0.707107 0.000000 -0.707107
v 1.000000 0.000000 0.000000
v 0.707107 0.000000 0.707107
v 0.000000 0.000000 1.000000
v -0.707107 0.000000 0.707107
v -1.000000 0.000000 0.000000
v -0.707107 0.000000 -0.707107
vn 0.3827 -0.0000 -0.9239
vn 0.9239 -0.0000 -0.3827
vn 0.9239 -0.0000 0.3827
vn 0.3827 -0.0000 0.9239
vn -0.3827 -0.0000 0.9239
vn -0.9239 -0.0000 0.3827
vn -0.0000 1.0000 -0.0000
vn -0.9239 -0.0000 -0.3827
vn -0.3827 -0.0000 -0.9239
vn -0.0000 -1.0000 -0.0000
vn -0.2970 -0.6305 -0.7171
vn -0.7171 -0.6305 -0.2970
vn -0.7171 -0.6305 0.2970
vn -0.2970 -0.6305 0.7171
vn 0.2970 -0.6305 0.7171
vn 0.7171 -0.6305 0.2970
vn 0.7171 -0.6305 -0.2970
vn 0.2970 -0.6305 -0.7171
vt 0.853553 0.216478
vt 0.646447 0.135299
vt 0.853553 0.135299
vt 0.646447 0.216478
vt 0.503875 0.135299
vt 0.853553 0.432957
vt 0.646447 0.351777
vt 0.853553 0.351777
vt 0.646447 0.432957
vt 0.502713 0.351778
vt 0.853553 0.649435
vt 0.646447 0.568256
vt 0.853553 0.568256
vt 0.646447 0.649435
vt 0.500000 0.568256
vt 0.146447 0.506805
vt 0.003906 0.138634
vt 0.359754 -0.000000
vt 0.853553 0.865914
vt 0.646447 0.784734
vt 0.853553 0.784734
vt 0.646447 0.865914
vt 0.500000 0.784734
vt 0.109908 0.808028
vt 0.191972 0.609908
vt 0.390092 0.691972
vt 0.500000 0.646447
vt 0.390092 0.808028
vt 0.691972 0.649435
vt 0.808028 0.649435
vt 0.146447 0.506805
vt 0.308028 0.609908
vt 0.691972 0.432957
vt 0.808028 0.432957
vt -0.000000 0.853553
vt 0.109908 0.691972
vt 0.691972 0.216478
vt 0.808028 0.216478
vt 0.353553 0.998962
vt 0.191972 0.890092
vt 0.308028 0.890092
vt 0.691972 0.000000
vt 0.808028 -0.000000
vt 0.503875 0.216478
vt 0.504069 0.432957
vt 0.500000 0.649435
vt 0.500000 0.146447
vt 0.502713 0.355297
vt 0.353553 0.506805
vt 0.001953 0.353553
vt 0.141564 0.002930
vt 0.500000 0.865914
vt 0.500000 0.853553
vt 0.353553 0.506805
vt -0.000000 0.646447
vt 0.146447 0.998962
s 0
usemtl Material
f 2/1/1 18/2/1 17/3/1
f 4/4/2 19/5/2 18/2/2
f 6/6/3 20/7/3 19/8/3
f 8/9/4 21/10/4 20/7/4
f 10/11/5 22/12/5 21/13/5
f 12/14/6 23/15/6 22/12/6
f 14/16/7 10/17/7 6/18/7
f 14/19/8 24/20/8 23/21/8
f 16/22/9 17/23/9 24/20/9
f 7/24/10 11/25/10 15/26/10
f 24/27/11 1/28/11 15/26/11
f 23/21/12 15/29/12 13/30/12
f 22/31/13 13/32/13 11/25/13
f 21/13/14 11/33/14 9/34/14
f 20/35/15 9/36/15 7/24/15
f 19/8/16 7/37/16 5/38/16
f 18/39/17 5/40/17 3/41/17
f 17/3/18 3/42/18 1/43/18
f 2/1/1 4/4/1 18/2/1
f 4/4/2 6/44/2 19/5/2
f 6/6/3 8/9/3 20/7/3
f 8/9/4 10/45/4 21/10/4
f 10/11/5 12/14/5 22/12/5
f 12/14/6 14/46/6 23/15/6
f 6/18/7 4/47/7 2/48/7
f 2/48/7 16/49/7 14/16/7
f 14/16/7 12/50/7 10/17/7
f 10/17/7 8/51/7 6/18/7
f 6/18/7 2/48/7 14/16/7
f 14/19/8 16/22/8 24/20/8
f 16/22/9 2/52/9 17/23/9
f 15/26/10 1/28/10 3/41/10
f 3/41/10 5/40/10 7/24/10
f 7/24/10 9/36/10 11/25/10
f 11/25/10 13/32/10 15/26/10
f 15/26/10 3/41/10 7/24/10
f 24/27/11 17/53/11 1/28/11
f 23/21/12 24/20/12 15/29/12
f 22/31/13 23/54/13 13/32/13
f 21/13/14 22/12/14 11/33/14
f 20/35/15 21/55/15 9/36/15
f 19/8/16 20/7/16 7/37/16
f 18/39/17 19/56/17 5/40/17
f 17/3/18 18/2/18 3/42/18
